<?xml version="1.0" encoding="UTF-8" standalone="no"?>
<svg
   xmlns:dc="http://purl.org/dc/elements/1.1/"
   xmlns:cc="http://creativecommons.org/ns#"
   xmlns:rdf="http://www.w3.org/1999/02/22-rdf-syntax-ns#"
   xmlns:svg="http://www.w3.org/2000/svg"
   xmlns="http://www.w3.org/2000/svg"
   version="1.1"
   id="svg6636"
   viewBox="0 0 744.09448819 1052.3622047"
   height="297mm"
   width="210mm">
  <defs
     id="defs6638" />
  <metadata
     id="metadata6641">
    <rdf:RDF>
      <cc:Work
         rdf:about="">
        <dc:format>image/svg+xml</dc:format>
        <dc:type
           rdf:resource="http://purl.org/dc/dcmitype/StillImage" />
        <dc:title></dc:title>
      </cc:Work>
    </rdf:RDF>
  </metadata>
  <g
     id="layer1">
    <g
       id="text24122"
       style="font-style:normal;font-weight:normal;font-size:70.69487762px;line-height:125%;font-family:sans-serif;letter-spacing:0px;word-spacing:0px;fill:#000000;fill-opacity:1;stroke:none;stroke-width:0.30000001;stroke-linecap:butt;stroke-linejoin:miter;stroke-miterlimit:4;stroke-dasharray:none;stroke-opacity:1">
      <path
         id="path7193"
         style="font-style:normal;font-variant:normal;font-weight:300;font-stretch:semi-expanded;font-family:Steiner;-inkscape-font-specification:'Steiner Light Semi-Expanded';stroke:#000000;stroke-width:0.30000001;stroke-miterlimit:4;stroke-dasharray:none;stroke-opacity:1"
         d="m -345.73183,502.25091 q 9.52724,0 16.43103,6.35149 l 2.20922,2.76152 q 3.58997,5.52304 3.58997,12.15068 l 0,0.96653 -40.1801,0 0,0.69038 q 0,5.55756 4.00421,10.908 4.48746,4.31487 8.0084,5.24689 3.52094,1.1046 5.93727,1.1046 12.11616,0 17.39756,-10.35569 0.82846,-1.82951 1.24269,-4.41843 l 3.31382,0 0,0.27615 q 0,3.17575 -3.31382,8.97494 -3.83161,5.00525 -9.94147,7.4561 -4.45295,1.24268 -7.04187,1.24268 l -2.20922,0 q -6.21341,0 -12.42683,-4.0042 -5.10881,-4.62555 -6.07534,-7.17995 -2.34729,-5.17785 -2.34729,-10.49377 0,-5.28141 2.76152,-11.18415 3.62449,-6.14438 10.90799,-8.97494 3.76257,-1.1046 7.73226,-1.51883 z m -17.67372,19.05448 36.45204,0 0,-0.13808 q -0.79393,-5.14333 -2.89959,-7.87033 -3.07219,-4.38391 -8.00841,-6.21341 -4.07324,-1.4498 -7.31802,-1.51884 -2.727,0 -7.87033,1.51884 -3.34834,1.51883 -6.62764,4.83265 -3.72805,5.03977 -3.72805,9.38917 z" />
      <path
         id="path7195"
         style="font-style:normal;font-variant:normal;font-weight:300;font-stretch:semi-expanded;font-family:Steiner;-inkscape-font-specification:'Steiner Light Semi-Expanded';stroke:#000000;stroke-width:0.30000001;stroke-miterlimit:4;stroke-dasharray:none;stroke-opacity:1"
         d="m -305.68981,502.11283 26.64865,0 0,3.17575 -27.33903,0 q -7.14543,0 -9.11301,5.79919 -0.55231,1.79498 -0.55231,3.17574 0,3.72805 3.17575,6.62765 2.51988,1.79499 4.41843,1.93306 l 19.19255,0 q 3.6245,0.41423 6.3515,2.76152 2.83055,2.69248 3.45189,5.52304 l 0.27616,1.79498 0,2.8996 q -0.41423,3.38286 -3.17575,6.62764 -2.24373,2.14018 -5.79919,3.03767 l -3.03767,0.13808 -28.16749,0 0,-3.03767 27.47711,0 q 7.59418,0 9.38916,-6.21342 l 0.27616,-2.20921 q 0,-5.28141 -5.24689,-7.73225 l -2.48537,-0.55231 -17.53564,0 q -3.65901,0.13808 -7.04187,-2.07114 -4.69458,-3.96968 -4.69458,-9.66531 0,-5.31593 4.28035,-9.52724 3.21026,-2.48537 9.25109,-2.48537 z" />
      <path
         id="path7197"
         style="font-style:normal;font-variant:normal;font-weight:300;font-stretch:semi-expanded;font-family:Steiner;-inkscape-font-specification:'Steiner Light Semi-Expanded';stroke:#000000;stroke-width:0.30000001;stroke-miterlimit:4;stroke-dasharray:none;stroke-opacity:1"
         d="m -271.72313,511.91622 0.13807,0 q 2.96864,-5.2814 9.52724,-8.0084 3.83161,-1.79499 9.52724,-1.79499 l 0.55231,0 q 5.86822,0 12.70298,4.41843 4.9017,4.14228 6.3515,8.42263 1.65691,2.83056 1.65691,9.80339 l 0,20.84947 -3.17575,0 0,-21.40177 q 0,-12.84106 -11.87453,-17.67372 -2.51989,-0.86297 -6.76572,-1.10461 -7.07639,0 -13.11721,4.83266 l -1.38076,1.51884 q -4.14228,4.86717 -4.14228,13.94567 l 0,19.88293 -3.17575,0 0,-59.51073 3.17575,0 0,25.8202 z" />
      <path
         id="path7199"
         style="font-style:normal;font-variant:normal;font-weight:300;font-stretch:semi-expanded;font-family:Steiner;-inkscape-font-specification:'Steiner Light Semi-Expanded';stroke:#000000;stroke-width:0.30000001;stroke-miterlimit:4;stroke-dasharray:none;stroke-opacity:1"
         d="m -213.45508,502.11283 26.64865,0 0,3.17575 -27.33903,0 q -7.14543,0 -9.11301,5.79919 -0.55231,1.79498 -0.55231,3.17574 0,3.72805 3.17575,6.62765 2.51988,1.79499 4.41843,1.93306 l 19.19255,0 q 3.6245,0.41423 6.3515,2.76152 2.83055,2.69248 3.45189,5.52304 l 0.27616,1.79498 0,2.8996 q -0.41423,3.38286 -3.17575,6.62764 -2.24373,2.14018 -5.79919,3.03767 l -3.03767,0.13808 -28.16749,0 0,-3.03767 27.47711,0 q 7.59418,0 9.38916,-6.21342 l 0.27616,-2.20921 q 0,-5.28141 -5.24689,-7.73225 l -2.48537,-0.55231 -17.53564,0 q -3.65901,0.13808 -7.04187,-2.07114 -4.69458,-3.96968 -4.69458,-9.66531 0,-5.31593 4.28035,-9.52724 3.21026,-2.48537 9.25109,-2.48537 z" />
      <path
         id="path7201"
         style="font-style:normal;font-variant:normal;font-weight:300;font-stretch:semi-expanded;font-family:Steiner;-inkscape-font-specification:'Steiner Light Semi-Expanded';stroke:#000000;stroke-width:0.30000001;stroke-miterlimit:4;stroke-dasharray:none;stroke-opacity:1"
         d="m -136.40872,502.25091 14.9122,0 0,3.31382 -15.87874,0 q -9.21656,0 -12.70298,2.76152 -4.93622,2.45085 -7.59418,10.07954 -0.5523,2.1747 -0.82845,5.52304 0.27615,4.14228 1.38076,7.31802 2.76151,6.59313 8.83686,9.52724 3.45189,1.65691 11.04607,1.65691 l 15.74066,0 0,3.17575 -19.60679,0 q -10.11406,0 -16.70718,-8.28456 -2.14018,-3.07218 -3.31383,-7.59417 l -0.82845,-4.97074 q 0,-5.21236 2.34729,-11.04607 l 1.79499,-2.89959 q 3.65901,-5.38497 10.63184,-7.4561 2.55441,-1.10461 10.76993,-1.10461 z" />
      <path
         id="path7203"
         style="font-style:normal;font-variant:normal;font-weight:300;font-stretch:semi-expanded;font-family:Steiner;-inkscape-font-specification:'Steiner Light Semi-Expanded';stroke:#000000;stroke-width:0.30000001;stroke-miterlimit:4;stroke-dasharray:none;stroke-opacity:1"
         d="m -117.35425,502.11283 3.31383,0 q 0.20711,0 3.03767,7.59418 l 10.908,29.54825 0.276148,0 13.669517,-37.14243 3.451899,0 0,0.13808 -22.092154,59.23457 -3.31382,0 0,-0.13807 6.48957,-17.8118 -15.74066,-41.42278 z" />
      <path
         id="path7205"
         style="font-style:normal;font-variant:normal;font-weight:300;font-stretch:semi-expanded;font-family:Steiner;-inkscape-font-specification:'Steiner Light Semi-Expanded';stroke:#000000;stroke-width:0.30000001;stroke-miterlimit:4;stroke-dasharray:none;stroke-opacity:1"
         d="m -75.379152,512.0543 0.138076,0 q 3.313822,-5.97179 11.322226,-8.69878 3.382861,-1.10461 7.456101,-1.10461 l 0.966531,0 q 6.386012,0 13.393366,5.10881 4.176797,3.8316 5.661113,7.87033 1.518835,3.38286 1.518835,8.83685 0,6.1789 -2.347291,10.21762 -2.899594,6.45505 -10.769922,9.8034 -4.07324,1.51883 -9.113012,1.51883 l -0.966532,0 q -7.283505,0 -14.221821,-5.93726 -1.794987,-1.93307 -3.03767,-3.72805 l 0,9.66531 -3.175747,0 0,-59.37265 3.175747,0 0,25.8202 z m 0.276152,10.908 0,0.69038 -0.138076,0.13807 0.138076,0.13808 0,0.5523 q 0,12.25424 12.426834,16.98334 3.003151,0.82846 6.075341,0.82846 10.424733,0 16.154884,-8.83686 2.347291,-4.97074 2.347291,-9.52724 0,-6.76572 -4.41843,-12.42683 -4.314873,-3.93517 -7.179949,-4.69459 -3.659012,-1.24268 -6.903796,-1.24268 -7.14543,0 -13.117214,4.83266 0,0.27615 -1.242683,1.38076 -4.142278,5.2814 -4.142278,11.18415 z" />
      <path
         id="path7207"
         style="font-style:normal;font-variant:normal;font-weight:300;font-stretch:semi-expanded;font-family:Steiner;-inkscape-font-specification:'Steiner Light Semi-Expanded';stroke:#000000;stroke-width:0.30000001;stroke-miterlimit:4;stroke-dasharray:none;stroke-opacity:1"
         d="m -9.3788675,502.25091 q 9.52723933,0 16.431036,6.35149 l 2.2092149,2.76152 q 3.5899746,5.52304 3.5899746,12.15068 l 0,0.96653 -40.180097,0 0,0.69038 q 0,5.55756 4.004202,10.908 4.487468,4.31487 8.008404,5.24689 3.520937,1.1046 5.9372655,1.1046 12.1161631,0 17.3975675,-10.35569 0.8284556,-1.82951 1.2426834,-4.41843 l 3.3138226,0 0,0.27615 q 0,3.17575 -3.3138226,8.97494 -3.8316071,5.00525 -9.94146717,7.4561 -4.45294883,1.24268 -7.04187253,1.24268 l -2.209215,0 q -6.2134167,0 -12.4268337,-4.0042 -5.10881,-4.62555 -6.075341,-7.17995 -2.347291,-5.17785 -2.347291,-10.49377 0,-5.28141 2.761519,-11.18415 3.624493,-6.14438 10.907998,-8.97494 3.762569,-1.1046 7.7322525,-1.51883 z m -17.6737195,19.05448 36.4520463,0 0,-0.13808 q -0.7939366,-5.14333 -2.8995946,-7.87033 -3.0721895,-4.38391 -8.0084041,-6.21341 -4.07324,-1.4498 -7.3180244,-1.51884 -2.7269992,0 -7.8703282,1.51884 -3.348341,1.51883 -6.627645,4.83265 -3.72805,5.03977 -3.72805,9.38917 z" />
      <path
         id="path7209"
         style="font-style:normal;font-variant:normal;font-weight:300;font-stretch:semi-expanded;font-family:Steiner;-inkscape-font-specification:'Steiner Light Semi-Expanded';stroke:#000000;stroke-width:0.30000001;stroke-miterlimit:4;stroke-dasharray:none;stroke-opacity:1"
         d="m 20.031295,508.18817 q 5.039771,-5.93726 12.012606,-5.93726 l 0.276152,0 0,3.03767 -0.138076,0 q -6.662164,0 -10.217619,5.38496 -1.794987,2.45085 -1.794987,8.14648 l 0,26.78673 -3.175747,0 0,-43.49392 3.037671,0 0,6.07534 z" />
      <path
         id="path7211"
         style="font-style:normal;font-variant:normal;font-weight:300;font-stretch:semi-expanded;font-family:Steiner;-inkscape-font-specification:'Steiner Light Semi-Expanded';stroke:#000000;stroke-width:0.30000001;stroke-miterlimit:4;stroke-dasharray:none;stroke-opacity:1"
         d="m 50.131861,502.11283 26.648655,0 0,3.17575 -27.339034,0 q -7.14543,0 -9.113012,5.79919 -0.552304,1.79498 -0.552304,3.17574 0,3.72805 3.175747,6.62765 2.519885,1.79499 4.41843,1.93306 l 19.192554,0 q 3.624493,0.41423 6.351493,2.76152 2.830557,2.69248 3.451898,5.52304 l 0.276152,1.79498 0,2.8996 q -0.414228,3.38286 -3.175746,6.62764 -2.243734,2.14018 -5.799189,3.03767 l -3.037671,0.13808 -28.16749,0 0,-3.03767 27.47711,0 q 7.594177,0 9.389164,-6.21342 l 0.276152,-2.20921 q 0,-5.28141 -5.246886,-7.73225 l -2.485366,-0.55231 -17.535644,0 q -3.659012,0.13808 -7.041873,-2.07114 -4.694581,-3.96968 -4.694581,-9.66531 0,-5.31593 4.280354,-9.52724 3.210265,-2.48537 9.251087,-2.48537 z" />
      <path
         id="path7213"
         style="font-style:normal;font-variant:normal;font-weight:300;font-stretch:semi-expanded;font-family:Steiner;-inkscape-font-specification:'Steiner Light Semi-Expanded';stroke:#000000;stroke-width:0.30000001;stroke-miterlimit:4;stroke-dasharray:none;stroke-opacity:1"
         d="m 102.32456,502.25091 q 9.52724,0 16.43104,6.35149 l 2.20921,2.76152 q 3.58998,5.52304 3.58998,12.15068 l 0,0.96653 -40.180099,0 0,0.69038 q 0,5.55756 4.004202,10.908 4.487468,4.31487 8.008405,5.24689 3.520936,1.1046 5.937262,1.1046 12.11617,0 17.39757,-10.35569 0.82846,-1.82951 1.24268,-4.41843 l 3.31383,0 0,0.27615 q 0,3.17575 -3.31383,8.97494 -3.8316,5.00525 -9.94146,7.4561 -4.45295,1.24268 -7.04188,1.24268 l -2.20921,0 q -6.213418,0 -12.426835,-4.0042 -5.10881,-4.62555 -6.075341,-7.17995 -2.347291,-5.17785 -2.347291,-10.49377 0,-5.28141 2.761519,-11.18415 3.624493,-6.14438 10.907998,-8.97494 3.76257,-1.1046 7.73225,-1.51883 z m -17.673717,19.05448 36.452047,0 0,-0.13808 q -0.79394,-5.14333 -2.8996,-7.87033 -3.07218,-4.38391 -8.0084,-6.21341 -4.07324,-1.4498 -7.31802,-1.51884 -2.727,0 -7.870332,1.51884 -3.348341,1.51883 -6.627645,4.83265 -3.72805,5.03977 -3.72805,9.38917 z" />
      <path
         id="path7215"
         style="font-style:normal;font-variant:normal;font-weight:300;font-stretch:semi-expanded;font-family:Steiner;-inkscape-font-specification:'Steiner Light Semi-Expanded';stroke:#000000;stroke-width:0.30000001;stroke-miterlimit:4;stroke-dasharray:none;stroke-opacity:1"
         d="m 154.2411,502.25091 14.9122,0 0,3.31382 -15.87873,0 q -9.21657,0 -12.70299,2.76152 -4.93621,2.45085 -7.59417,10.07954 -0.55231,2.1747 -0.82846,5.52304 0.27615,4.14228 1.38076,7.31802 2.76152,6.59313 8.83686,9.52724 3.4519,1.65691 11.04608,1.65691 l 15.74065,0 0,3.17575 -19.60678,0 q -10.11406,0 -16.70719,-8.28456 -2.14017,-3.07218 -3.31382,-7.59417 l -0.82846,-4.97074 q 0,-5.21236 2.3473,-11.04607 l 1.79498,-2.89959 q 3.65901,-5.38497 10.63185,-7.4561 2.5544,-1.10461 10.76992,-1.10461 z" />
      <path
         id="path7217"
         style="font-style:normal;font-variant:normal;font-weight:300;font-stretch:semi-expanded;font-family:Steiner;-inkscape-font-specification:'Steiner Light Semi-Expanded';stroke:#000000;stroke-width:0.30000001;stroke-miterlimit:4;stroke-dasharray:none;stroke-opacity:1"
         d="m 176.60942,502.11283 0,18.50218 q 0,9.38916 2.48536,12.84106 2.65797,5.03977 8.83686,7.4561 3.90065,1.38076 6.76573,1.38076 l 1.1046,0 q 5.55756,0 11.46031,-3.86613 6.62764,-5.66111 6.62764,-15.05027 l 0,-21.40177 3.03767,0 0,43.63199 -3.03767,0 0,-9.66531 q -3.86613,6.14437 -11.73645,8.69878 -2.83056,0.96653 -5.38497,0.96653 l -0.82845,0 q -11.21867,0 -17.12142,-7.04187 -3.38286,-3.03767 -4.97073,-9.94147 -0.5523,-3.4519 -0.5523,-5.24688 l 0,-21.2637 3.31382,0 z" />
      <path
         id="path7219"
         style="font-style:normal;font-variant:normal;font-weight:300;font-stretch:semi-expanded;font-family:Steiner;-inkscape-font-specification:'Steiner Light Semi-Expanded';stroke:#000000;stroke-width:0.30000001;stroke-miterlimit:4;stroke-dasharray:none;stroke-opacity:1"
         d="m 224.10756,508.18817 q 5.03977,-5.93726 12.0126,-5.93726 l 0.27616,0 0,3.03767 -0.13808,0 q -6.66216,0 -10.21762,5.38496 -1.79499,2.45085 -1.79499,8.14648 l 0,26.78673 -3.17574,0 0,-43.49392 3.03767,0 0,6.07534 z" />
      <path
         id="path7221"
         style="font-style:normal;font-variant:normal;font-weight:300;font-stretch:semi-expanded;font-family:Steiner;-inkscape-font-specification:'Steiner Light Semi-Expanded';stroke:#000000;stroke-width:0.30000001;stroke-miterlimit:4;stroke-dasharray:none;stroke-opacity:1"
         d="m 243.64529,545.60675 -3.10671,0 0,-43.49392 3.10671,0 0,43.49392 z m -0.0345,-52.22722 -3.07219,0 0,-7.14543 3.07219,0 0,7.14543 z" />
      <path
         id="path7223"
         style="font-style:normal;font-variant:normal;font-weight:300;font-stretch:semi-expanded;font-family:Steiner;-inkscape-font-specification:'Steiner Light Semi-Expanded';stroke:#000000;stroke-width:0.30000001;stroke-miterlimit:4;stroke-dasharray:none;stroke-opacity:1"
         d="m 251.03232,501.97476 18.9164,0 0,3.17574 -18.9164,0 0,17.8118 q 0.069,3.76257 1.93306,8.42263 1.07009,2.83056 5.93726,7.31802 6.00631,3.72805 11.87453,3.72805 l 0.41423,0 0,3.17575 -0.13807,0 q -10.21762,0 -17.39757,-7.31802 -5.79919,-6.76572 -5.79919,-16.70719 l 0,-35.34744 3.17575,0 0,15.74066 z" />
      <path
         id="path7225"
         style="font-style:normal;font-variant:normal;font-weight:300;font-stretch:semi-expanded;font-family:Steiner;-inkscape-font-specification:'Steiner Light Semi-Expanded';stroke:#000000;stroke-width:0.30000001;stroke-miterlimit:4;stroke-dasharray:none;stroke-opacity:1"
         d="m 275.33368,502.11283 3.31382,0 q 0.20712,0 3.03767,7.59418 l 10.908,29.54825 0.27616,0 13.66951,-37.14243 3.4519,0 0,0.13808 -22.09215,59.23457 -3.31382,0 0,-0.13807 6.48957,-17.8118 -15.74066,-41.42278 z" />
    </g>
  </g>
</svg>
